<?xml version="1.0" encoding="UTF-8"?>
<svg id="_レイヤー_1" data-name="レイヤー_1" xmlns="http://www.w3.org/2000/svg" version="1.1" viewBox="0 0 1221.62 1201.59">
  <!-- Generator: Adobe Illustrator 30.2.1, SVG Export Plug-In . SVG Version: 2.1.1 Build 1)  -->
  <defs>
    <style>
      .st0 {
        fill: #ff0;
      }
    </style>
  </defs>
  <g id="_レイヤー_3">
    <polygon class="st0" points="953.19 613.39 950.39 613.39 875.03 668.76 895.82 618.39 893.22 617.59 882.03 618.59 865.44 620.59 854.04 621.79 851.85 628.19 817.66 653.37 817.66 793.23 770.84 839.52 664.17 839.52 617.54 791.9 617.54 422.8 483.29 506.57 483.29 847.14 601.6 966.82 827.62 966.82 953.19 841.33 953.19 613.39"/>
  </g>
  <g id="_レイヤー_4">
    <polygon class="st0" points="602.91 447.02 497.44 515.07 498.12 840.67 607.34 952.26 822.36 952.26 939.06 835.22 940.05 640.26 848.63 704.91 846.21 702.98 875.4 630.85 891.81 619.51 879.75 621.2 874.2 623.86 868.17 623.61 865.03 621.44 859.96 621.68 855.14 621.68 852.73 625.79 857.07 624.1 849.59 647.98 831.74 660.28 831.74 798.26 777.22 853.02 658.26 853.71 602.74 798.47 602.91 447.02"/>
  </g>
  <g id="_レイヤー_2" data-name="レイヤー_2">
    <polygon points="902.25 595.31 953.19 556.34 953.19 416.32 816.72 505.82 817.11 590.27 818.82 590.72 876 548.11 858.31 589.64 858.81 591.69 862.21 591.69 861.29 595.73 871.68 599.96 874.89 597.85 902.07 597.57 902.25 595.31"/>
  </g>
  <g id="_レイヤー_31" data-name="レイヤー_3">
    <polygon class="st0" points="940.05 549.25 940.05 441.33 831.51 511.34 831.51 563.67 903.15 510.18 905.24 510.25 905.28 513.96 880.06 578.27 862.35 590.3 865.36 592.8 868.7 594.64 871.7 595.31 873.38 593.47 899.27 593.47 907.62 572.09 940.05 549.25"/>
  </g>
</svg>