<?xml version="1.0" encoding="UTF-8"?><svg id="a" xmlns="http://www.w3.org/2000/svg" viewBox="0 0 87.76 114.88"><path d="M22.75,0l-4.04.87c.38,11.69,1.28,23.92.73,34.59-.58,11.33-2.59,21.12-9.56,26.67v52.75h68v-52.75c-6.97-5.55-8.98-15.35-9.56-26.67-.55-10.67.35-22.9.73-34.59L65.01,0c-.32,5.52-1.54,11.51-4.21,16.56-3.14,5.94-8.78,10.82-16.91,10.82s-13.77-4.88-16.91-10.82c-2.67-5.06-3.89-11.04-4.21-16.56ZM28.04.83c.41,4.8,1.57,9.87,3.69,13.87,2.67,5.06,6.34,8.18,12.15,8.18s9.47-3.12,12.15-8.18c2.12-4,3.28-9.07,3.69-13.87-6.86,2.92-11.19,4.55-15.84,4.55s-8.98-1.63-15.84-4.55ZM13.51,1.98l-4.18.9c.12,9.41,1.1,19.73.55,29.35-.58,9.88-2.85,19.15-9.88,25.72v56.93h4.65v-54.82l.99-.68c5.46-3.8,7.99-12.7,8.57-24.12.52-10.03-.29-21.78-.7-33.28ZM74.25,1.98c-.41,11.49-1.22,23.25-.7,33.28.58,11.42,3.11,20.33,8.57,24.12l.99.68v54.82h4.65v-56.93c-7.03-6.58-9.3-15.85-9.88-25.72-.55-9.62.44-19.95.55-29.35l-4.18-.9Z"/></svg>